# xmcd
#
# Track frame offsets:
#	220
#	17615
#	32772
#	47212
#	59870
#	77517
#	90900
#	106982
#	122522
#	138312
#	153600
#	170100
#	188235
#
# Disc length: 2738 seconds
#
# Revision: 0
# Processed by: cddbd v1.5.2PL0 Copyright (c) Steve Scherf et al.
# Submitted via: dBpowerAMP V4.0
#
DISCID=a90ab00d
DTITLE=The Bellamy Brothers - Let Your Love Flow
DYEAR=1998
DGENRE=Country
TTITLE0=1.  Track 01 Let's Fall In Love Again
TTITLE1=Track02 I Could Be Persuaded
TTITLE2=Track03 Big Love
TTITLE3=Track04 Let Your Love Flow
TTITLE4=Track05 Sweet Nostalgia
TTITLE5=Track06 Do You Love As Good As You Look
TTITLE6=Track07 Crazy From The Heart
TTITLE7=Track08 I'd Lie To You For Your Love
TTITLE8=Track09 Everybody's Somebody's Darlin
TTITLE9=Track10 The Center Of My Universe
TTITLE10=Track11 Tough Love
TTITLE11=Track12 We Don't Want To Go For It
TTITLE12=Track13 Save Your Love
EXTD=The Bellamy Brothers, Samantha De Bondi
EXTT0=
EXTT1=
EXTT2=
EXTT3=
EXTT4=
EXTT5=
EXTT6=
EXTT7=
EXTT8=
EXTT9=
EXTT10=
EXTT11=
EXTT12=
PLAYORDER=
